<mxfile host="app.diagrams.net" modified="2023-11-03T19:09:40.542Z" agent="Mozilla/5.0 (Windows NT 10.0; Win64; x64) AppleWebKit/537.36 (KHTML, like Gecko) Chrome/118.0.0.0 Safari/537.36" etag="it_jI5-B5Rd4bK40oFth" version="22.0.8" type="github">
  <diagram name="DC - Ordenes MultiBodega" id="dP7JWLLXYjm7gVHI7CY_">
    <mxGraphModel dx="2074" dy="772" grid="1" gridSize="10" guides="1" tooltips="1" connect="1" arrows="1" fold="1" page="1" pageScale="1" pageWidth="827" pageHeight="1169" math="0" shadow="0">
      <root>
        <mxCell id="0" />
        <mxCell id="1" parent="0" />
        <mxCell id="L0VeZE1op2uClBTfo5yl-1" value="OrderController" style="swimlane;fontStyle=1;align=center;verticalAlign=top;childLayout=stackLayout;horizontal=1;startSize=26;horizontalStack=0;resizeParent=1;resizeParentMax=0;resizeLast=0;collapsible=1;marginBottom=0;whiteSpace=wrap;html=1;" vertex="1" parent="1">
          <mxGeometry x="100" y="40" width="160" height="60" as="geometry" />
        </mxCell>
        <mxCell id="L0VeZE1op2uClBTfo5yl-3" value="" style="line;strokeWidth=1;fillColor=none;align=left;verticalAlign=middle;spacingTop=-1;spacingLeft=3;spacingRight=3;rotatable=0;labelPosition=right;points=[];portConstraint=eastwest;strokeColor=inherit;" vertex="1" parent="L0VeZE1op2uClBTfo5yl-1">
          <mxGeometry y="26" width="160" height="8" as="geometry" />
        </mxCell>
        <mxCell id="L0VeZE1op2uClBTfo5yl-4" value="+ makeOrder(type): type" style="text;strokeColor=none;fillColor=none;align=left;verticalAlign=top;spacingLeft=4;spacingRight=4;overflow=hidden;rotatable=0;points=[[0,0.5],[1,0.5]];portConstraint=eastwest;whiteSpace=wrap;html=1;" vertex="1" parent="L0VeZE1op2uClBTfo5yl-1">
          <mxGeometry y="34" width="160" height="26" as="geometry" />
        </mxCell>
        <mxCell id="L0VeZE1op2uClBTfo5yl-5" value="WarehouseService" style="swimlane;fontStyle=1;align=center;verticalAlign=top;childLayout=stackLayout;horizontal=1;startSize=26;horizontalStack=0;resizeParent=1;resizeParentMax=0;resizeLast=0;collapsible=1;marginBottom=0;whiteSpace=wrap;html=1;" vertex="1" parent="1">
          <mxGeometry x="70" y="300" width="240" height="134" as="geometry" />
        </mxCell>
        <mxCell id="L0VeZE1op2uClBTfo5yl-6" value="+ field: type" style="text;strokeColor=none;fillColor=none;align=left;verticalAlign=top;spacingLeft=4;spacingRight=4;overflow=hidden;rotatable=0;points=[[0,0.5],[1,0.5]];portConstraint=eastwest;whiteSpace=wrap;html=1;" vertex="1" parent="L0VeZE1op2uClBTfo5yl-5">
          <mxGeometry y="26" width="240" height="26" as="geometry" />
        </mxCell>
        <mxCell id="L0VeZE1op2uClBTfo5yl-7" value="" style="line;strokeWidth=1;fillColor=none;align=left;verticalAlign=middle;spacingTop=-1;spacingLeft=3;spacingRight=3;rotatable=0;labelPosition=right;points=[];portConstraint=eastwest;strokeColor=inherit;" vertex="1" parent="L0VeZE1op2uClBTfo5yl-5">
          <mxGeometry y="52" width="240" height="8" as="geometry" />
        </mxCell>
        <mxCell id="L0VeZE1op2uClBTfo5yl-8" value="+ getNearestOriginWArehouse(type): type" style="text;strokeColor=none;fillColor=none;align=left;verticalAlign=top;spacingLeft=4;spacingRight=4;overflow=hidden;rotatable=0;points=[[0,0.5],[1,0.5]];portConstraint=eastwest;whiteSpace=wrap;html=1;" vertex="1" parent="L0VeZE1op2uClBTfo5yl-5">
          <mxGeometry y="60" width="240" height="74" as="geometry" />
        </mxCell>
        <mxCell id="L0VeZE1op2uClBTfo5yl-10" value="" style="endArrow=open;endFill=1;endSize=12;html=1;rounded=0;entryX=0.446;entryY=0.022;entryDx=0;entryDy=0;entryPerimeter=0;exitX=0.488;exitY=1.115;exitDx=0;exitDy=0;exitPerimeter=0;" edge="1" parent="1" source="L0VeZE1op2uClBTfo5yl-4" target="L0VeZE1op2uClBTfo5yl-5">
          <mxGeometry width="160" relative="1" as="geometry">
            <mxPoint x="170" y="100" as="sourcePoint" />
            <mxPoint x="330" y="100" as="targetPoint" />
          </mxGeometry>
        </mxCell>
        <mxCell id="L0VeZE1op2uClBTfo5yl-11" value="DistanceMatrixService" style="swimlane;fontStyle=1;align=center;verticalAlign=top;childLayout=stackLayout;horizontal=1;startSize=26;horizontalStack=0;resizeParent=1;resizeParentMax=0;resizeLast=0;collapsible=1;marginBottom=0;whiteSpace=wrap;html=1;" vertex="1" parent="1">
          <mxGeometry x="480" y="312" width="307.69" height="110" as="geometry" />
        </mxCell>
        <mxCell id="L0VeZE1op2uClBTfo5yl-12" value="+ field: type" style="text;strokeColor=none;fillColor=none;align=left;verticalAlign=top;spacingLeft=4;spacingRight=4;overflow=hidden;rotatable=0;points=[[0,0.5],[1,0.5]];portConstraint=eastwest;whiteSpace=wrap;html=1;" vertex="1" parent="L0VeZE1op2uClBTfo5yl-11">
          <mxGeometry y="26" width="307.69" height="26" as="geometry" />
        </mxCell>
        <mxCell id="L0VeZE1op2uClBTfo5yl-13" value="" style="line;strokeWidth=1;fillColor=none;align=left;verticalAlign=middle;spacingTop=-1;spacingLeft=3;spacingRight=3;rotatable=0;labelPosition=right;points=[];portConstraint=eastwest;strokeColor=inherit;" vertex="1" parent="L0VeZE1op2uClBTfo5yl-11">
          <mxGeometry y="52" width="307.69" height="8" as="geometry" />
        </mxCell>
        <mxCell id="L0VeZE1op2uClBTfo5yl-14" value="+ getMinDistance(type): type" style="text;strokeColor=none;fillColor=none;align=left;verticalAlign=top;spacingLeft=4;spacingRight=4;overflow=hidden;rotatable=0;points=[[0,0.5],[1,0.5]];portConstraint=eastwest;whiteSpace=wrap;html=1;" vertex="1" parent="L0VeZE1op2uClBTfo5yl-11">
          <mxGeometry y="60" width="307.69" height="50" as="geometry" />
        </mxCell>
        <mxCell id="L0VeZE1op2uClBTfo5yl-15" value="" style="endArrow=open;endFill=1;endSize=12;html=1;rounded=0;entryX=-0.003;entryY=0.14;entryDx=0;entryDy=0;entryPerimeter=0;" edge="1" parent="1" target="L0VeZE1op2uClBTfo5yl-14">
          <mxGeometry width="160" relative="1" as="geometry">
            <mxPoint x="310" y="380" as="sourcePoint" />
            <mxPoint x="470" y="380" as="targetPoint" />
          </mxGeometry>
        </mxCell>
      </root>
    </mxGraphModel>
  </diagram>
</mxfile>
